<?xml version="1.0" encoding="UTF-8" standalone="no"?>
<svg
   version="1.1"
   width="779.8111"
   height="779.8111"
   id="svg2"
   inkscape:version="1.2.2 (732a01da63, 2022-12-09)"
   sodipodi:docname="electrum_avian.svg"
   inkscape:export-filename="/home/voegtlin/logos/electrum_blue.png"
   inkscape:export-xdpi="10.014582"
   inkscape:export-ydpi="10.014582"
   xml:space="preserve"
   xmlns:inkscape="http://www.inkscape.org/namespaces/inkscape"
   xmlns:sodipodi="http://sodipodi.sourceforge.net/DTD/sodipodi-0.dtd"
   xmlns:xlink="http://www.w3.org/1999/xlink"
   xmlns="http://www.w3.org/2000/svg"
   xmlns:svg="http://www.w3.org/2000/svg"
   xmlns:rdf="http://www.w3.org/1999/02/22-rdf-syntax-ns#"
   xmlns:cc="http://creativecommons.org/ns#"
   xmlns:dc="http://purl.org/dc/elements/1.1/"><metadata
     id="metadata53"><rdf:RDF><cc:Work
         rdf:about=""><dc:format>image/svg+xml</dc:format><dc:type
           rdf:resource="http://purl.org/dc/dcmitype/StillImage" /></cc:Work></rdf:RDF></metadata><sodipodi:namedview
     pagecolor="#ffffff"
     bordercolor="#666666"
     borderopacity="1"
     objecttolerance="10"
     gridtolerance="10"
     guidetolerance="10"
     inkscape:pageopacity="0"
     inkscape:pageshadow="2"
     inkscape:window-width="2048"
     inkscape:window-height="1081"
     id="namedview51"
     showgrid="true"
     showguides="true"
     inkscape:guide-bbox="true"
     inkscape:zoom="1"
     inkscape:cx="248.5"
     inkscape:cy="406"
     inkscape:window-x="-8"
     inkscape:window-y="-8"
     inkscape:window-maximized="1"
     inkscape:current-layer="svg2"
     inkscape:showpageshadow="false"
     showborder="false"
     inkscape:document-rotation="0"
     fit-margin-top="43.371585"
     fit-margin-left="5"
     fit-margin-right="5"
     fit-margin-bottom="43.37159"
     inkscape:pagecheckerboard="0"
     inkscape:deskcolor="#d1d1d1"><inkscape:grid
       type="xygrid"
       id="grid40"
       originx="0.8417048"
       originy="30.067951" /></sodipodi:namedview><defs
     id="defs4"><linearGradient
       id="linearGradient7437"><stop
         style="stop-color:#34e2d5;stop-opacity:1;"
         offset="0"
         id="stop7433" /><stop
         style="stop-color:#2a737f;stop-opacity:1;"
         offset="1"
         id="stop7435" /></linearGradient><linearGradient
       id="linearGradient7431"><stop
         style="stop-color:#34e2d5;stop-opacity:1;"
         offset="0"
         id="stop7427" /><stop
         style="stop-color:#2a737f;stop-opacity:1;"
         offset="1"
         id="stop7429" /></linearGradient><linearGradient
       id="linearGradient2343"><stop
         style="stop-color:#34e2d5;stop-opacity:1;"
         offset="0"
         id="stop2339" /><stop
         style="stop-color:#2a737f;stop-opacity:1;"
         offset="1"
         id="stop2341" /></linearGradient><linearGradient
       id="linearGradient3987"><stop
         style="stop-color:#1382ef;stop-opacity:1;"
         offset="0"
         id="stop4032" /><stop
         style="stop-color:#0056c0;stop-opacity:1;"
         offset="1"
         id="stop3991" /></linearGradient><radialGradient
       inkscape:collect="always"
       xlink:href="#linearGradient7431"
       id="radialGradient3786"
       cx="523.18433"
       cy="732.08508"
       fx="523.18433"
       fy="732.08508"
       r="146.04732"
       gradientTransform="matrix(-0.89061708,0.86297075,-0.78291311,-0.80799475,1427.0215,361.93374)"
       gradientUnits="userSpaceOnUse" /><radialGradient
       inkscape:collect="always"
       xlink:href="#linearGradient7437"
       id="radialGradient3796"
       cx="529.57996"
       cy="728.15845"
       fx="529.57996"
       fy="728.15845"
       r="146.04732"
       gradientTransform="matrix(-0.87083717,0.55292729,-0.71897156,-1.1320773,466.94349,499.54907)"
       gradientUnits="userSpaceOnUse" /><radialGradient
       inkscape:collect="always"
       xlink:href="#linearGradient2343"
       id="radialGradient3800"
       cx="505.65533"
       cy="726.3916"
       fx="505.65533"
       fy="726.3916"
       r="146.04732"
       gradientTransform="matrix(-0.94821917,1.3404019,-1.4302101,-1.0037148,1646.3221,-657.08623)"
       gradientUnits="userSpaceOnUse" /><style
       id="style8667">.cls-1{fill:#231f20;}</style></defs><g
     id="g15485"
     transform="translate(0,-1.8208701e-5)"><ellipse
       style="fill:none;fill-opacity:0;stroke:url(#radialGradient3786);stroke-width:37.5001;stroke-miterlimit:4;stroke-dasharray:none;stroke-opacity:1;marker-start:none"
       id="path3803"
       inkscape:export-filename="/home/voegtlin/logos/electrum_blue_128.png"
       inkscape:export-xdpi="15.13"
       inkscape:export-ydpi="15.13"
       cx="389.90555"
       cy="389.90558"
       rx="366.15549"
       ry="173.5993" /><ellipse
       transform="matrix(-0.50141536,-0.8652067,0.86684024,-0.498586,0,0)"
       id="path4023"
       style="fill:none;fill-opacity:0;stroke:url(#radialGradient3796);stroke-width:37.5002;stroke-miterlimit:4;stroke-dasharray:none;stroke-opacity:1;marker-start:none"
       inkscape:export-filename="/home/voegtlin/logos/electrum_blue_128.png"
       inkscape:export-xdpi="15.13"
       inkscape:export-ydpi="15.13"
       cx="-532.39014"
       cy="141.84494"
       rx="365.12195"
       ry="174.09163" /><ellipse
       style="fill:none;fill-opacity:0;stroke:url(#radialGradient3800);stroke-width:37.5002;stroke-miterlimit:4;stroke-dasharray:none;stroke-opacity:1;marker-start:none"
       id="path4029"
       transform="matrix(-0.50141531,0.86520673,-0.86684024,-0.498586,0,0)"
       inkscape:export-filename="/home/voegtlin/logos/electrum_blue_128.png"
       inkscape:export-xdpi="15.13"
       inkscape:export-ydpi="15.13"
       cx="143.58517"
       cy="-532.85626"
       rx="365.12195"
       ry="174.09163" /><g
       id="g12430"
       transform="matrix(0.59381834,0,0,0.59381834,307.40043,262.70959)"
       style="fill:#2c737f;fill-opacity:1"><path
         d="m 156.3,82.58 a 14,14 0 0 1 -4.81,-10.64 v -17 a 13.83,13.83 0 0 0 -4.06,-9.79 L 141,38.65 a 2.84,2.84 0 0 0 -4,0 l -6.5,6.49 a 13.83,13.83 0 0 0 -4.06,9.8 v 17 a 14,14 0 0 1 -4.81,10.61 11.2,11.2 0 0 0 -4,8.39 v 9 a 28.82,28.82 0 0 0 8.37,20.31 l 12.95,13 12.95,-13 a 28.82,28.82 0 0 0 8.43,-20.36 v -9 a 11.19,11.19 0 0 0 -4.03,-8.31 z"
         fill="none"
         id="path12416"
         style="fill:#ffffff;fill-opacity:1" /><path
         d="m 116,295.17 c 1.4,0.91 6.25,3.85 6.25,6.05 0,-10.81 0.46,-24.19 -7.58,-32.57 -0.21,-0.22 2.6,-3.81 2.92,-4.23 a 24.52,24.52 0 0 1 1.64,-1.88 c 2.42,-2.54 5.2,-4.72 7,-7.84 a 14.91,14.91 0 0 0 1.73,-6 15.07,15.07 0 0 0 -4.34,-11.7 l -8.19,-8.19 a 23.55,23.55 0 0 1 -6.9,-16.66 V 193.29 A 26.54,26.54 0 0 0 85,166.92 a 2.71,2.71 0 0 0 -3,2.71 v 43.84 a 46.76,46.76 0 0 0 13.71,33.09 0.26,0.26 0 0 1 0,0.35 L 84.09,260.5 c -0.91,1.06 -5.54,-0.15 -6.79,-0.23 A 51.56,51.56 0 0 0 61,261.18 c -7.42,1.82 -12.93,7.72 -16,14.5 a 38.36,38.36 0 0 0 -2.89,10.81 c -0.3,2.25 -0.56,4.51 -0.68,6.78 -0.06,1 0.53,6.62 0,7.11 1.73,-1.49 5,-7.19 13,-9.82 a 2.21,2.21 0 0 1 2.93,2 A 100.45,100.45 0 0 0 59,305 c 2.25,8.23 7.28,15.07 13.59,20.68 0.83,-4.49 2.52,-18 9.4,-26.12 3.64,-4.3 7.49,-8.4 13.18,-9.84 7.51,-1.94 14.66,1.51 20.83,5.45 z"
         fill="#ffffff"
         id="path12418"
         style="fill:#2c737f;fill-opacity:1" /><path
         d="m 66.68,230.59 v -78 A 26.54,26.54 0 0 0 40.14,126 v 131.13 a 26.54,26.54 0 0 0 26.54,-26.54 z"
         fill="#ffffff"
         id="path12420"
         style="fill:#2c737f;fill-opacity:1" /><path
         d="m 235.83,293.27 c -0.11,-2.27 -0.38,-4.53 -0.68,-6.78 a 38.35,38.35 0 0 0 -2.88,-10.81 c -3.07,-6.78 -8.59,-12.68 -16,-14.5 a 51.62,51.62 0 0 0 -16.31,-0.91 c -1.25,0.08 -5.87,1.29 -6.78,0.23 0,0 -8.13,-9.49 -11.63,-13.59 a 0.26,0.26 0 0 1 0,-0.35 46.79,46.79 0 0 0 13.7,-33.09 v -43.84 a 2.71,2.71 0 0 0 -3,-2.71 26.54,26.54 0 0 0 -23.56,26.37 v 18.81 a 23.55,23.55 0 0 1 -6.9,16.66 L 153.65,237 A 15.15,15.15 0 0 0 151,254.7 c 1.76,3.12 4.55,5.3 7,7.84 a 22.52,22.52 0 0 1 1.64,1.88 c 0.33,0.42 3.14,4 2.92,4.23 -8,8.38 -7.58,21.76 -7.58,32.57 0,-2.2 4.85,-5.14 6.25,-6.05 6.2,-3.94 13.35,-7.39 20.88,-5.48 5.68,1.44 9.53,5.54 13.17,9.84 6.88,8.15 8.57,21.63 9.4,26.12 C 211,320 216,313.2 218.28,305 a 102.93,102.93 0 0 0 1.65,-12.42 2.22,2.22 0 0 1 2.94,-2 c 8,2.63 11.25,8.33 13,9.82 -0.57,-0.51 0.02,-6.16 -0.04,-7.13 z"
         fill="#ffffff"
         id="path12422"
         style="fill:#2c737f;fill-opacity:1" /><path
         d="m 185.34,344.12 -6.92,-39.26 a 26.53,26.53 0 0 0 -21.94,26.14 28.26,28.26 0 0 0 0.4,4.65 l 5.1,28.94 a 4.88,4.88 0 0 1 -1.34,4.27 l -22,22 -22,-22 a 4.86,4.86 0 0 1 -1.35,-4.27 l 5.1,-28.94 a 28.26,28.26 0 0 0 0.4,-4.65 26.53,26.53 0 0 0 -21.94,-26.1 l -6.92,39.26 -5.19,29.42 a 4.87,4.87 0 0 0 1.35,4.27 l 21.13,21.11 29.42,29.43 0.29,-0.31 50.24,-50.23 a 4.83,4.83 0 0 0 1.34,-4.27 z"
         fill="#ffffff"
         id="path12424"
         style="fill:#2c737f;fill-opacity:1" /><path
         d="m 210.58,152.56 v 78 a 26.54,26.54 0 0 0 26.54,26.54 V 126 a 26.55,26.55 0 0 0 -26.54,26.56 z"
         fill="#ffffff"
         id="path12426"
         style="fill:#2c737f;fill-opacity:1" /><path
         d="m 270.54,94.44 a 54.49,54.49 0 0 0 -8.61,-11 c -4.05,-4 -7.92,-8.13 -12,-12.12 -1.65,-1.61 -3.26,-3.35 -5,-4.85 a 30.24,30.24 0 0 0 -2.47,-1.82 c -0.6,-0.42 -2,-1.61 -2.73,-1.61 a 32.13,32.13 0 0 0 -14.19,-3.26 4,4 0 0 0 -3.74,2.75 23.24,23.24 0 0 1 -5.31,8.81 25.46,25.46 0 0 1 -2.16,2 23.32,23.32 0 0 1 -25.25,2.7 6.17,6.17 0 0 1 -0.72,-0.38 c -0.23,-0.12 -0.47,-0.25 -0.7,-0.4 l -0.3,-0.17 A 2.9,2.9 0 0 1 187,74.84 13,13 0 0 1 185.82,74.03 c -0.55,-0.4 -1.1,-0.84 -1.61,-1.29 A 15.43,15.43 0 0 1 179,61.12 V 44.89 a 13.79,13.79 0 0 0 -4.08,-9.8 c -1.44,-1.43 -26.76,-26.43 -34,-34.2 a 2.84,2.84 0 0 0 -4.11,0 C 125.67,12.43 114.34,23.77 103,35.1 a 13.87,13.87 0 0 0 -4.06,9.81 v 16.21 a 15.46,15.46 0 0 1 -5.23,11.64 c -0.51,0.45 -1.06,0.89 -1.61,1.29 a 13,13 0 0 1 -1.18,0.81 2.9,2.9 0 0 1 -0.36,0.25 l -0.3,0.17 c -0.23,0.15 -0.47,0.28 -0.7,0.4 a 7.09,7.09 0 0 1 -0.72,0.38 23.32,23.32 0 0 1 -25.25,-2.7 27.21,27.21 0 0 1 -2.17,-2 23.34,23.34 0 0 1 -5.3,-8.81 4,4 0 0 0 -3.74,-2.75 32.18,32.18 0 0 0 -14.2,3.26 c -0.75,0 -2.12,1.19 -2.75,1.61 -0.83,0.57 -1.68,1.18 -2.44,1.82 -1.78,1.5 -3.38,3.24 -5,4.85 -4.06,4 -7.93,8.14 -12,12.12 A 52.85,52.85 0 0 0 0,121.31 V 328.25 A 26.55,26.55 0 0 0 26.54,301.71 V 129.12 a 45.4,45.4 0 0 1 13.27,-32 l 1.82,-1.82 a 4.49,4.49 0 0 1 5.9,-0.38 49.74,49.74 0 0 0 37.8,9.31 4.47,4.47 0 0 1 5.17,4.42 v 1.76 a 28.87,28.87 0 0 0 8.44,20.4 c 0,0 40,40 40,40 l 35.17,-35.17 4.81,-4.83 a 28.88,28.88 0 0 0 8.46,-20.38 v -1.76 a 4.47,4.47 0 0 1 5.17,-4.42 49.74,49.74 0 0 0 37.8,-9.31 4.49,4.49 0 0 1 5.9,0.38 l 1.82,1.82 a 45.36,45.36 0 0 1 13.27,32 v 172.57 a 26.54,26.54 0 0 0 26.54,26.54 V 121.31 a 53.29,53.29 0 0 0 -7.34,-26.87 z m -110.22,5.45 a 28.82,28.82 0 0 1 -8.43,20.36 l -12.95,13 -12.95,-13 a 28.82,28.82 0 0 1 -8.43,-20.36 v -9 a 11.2,11.2 0 0 1 4,-8.39 14,14 0 0 0 4.81,-10.61 v -17 a 13.83,13.83 0 0 1 4.06,-9.8 l 6.5,-6.49 a 2.84,2.84 0 0 1 4,0 l 6.48,6.49 a 13.83,13.83 0 0 1 4.06,9.79 v 17 a 14,14 0 0 0 4.81,10.64 11.19,11.19 0 0 1 4,8.36 z"
         fill="#ffffff"
         id="path12428"
         style="fill:#2c737f;fill-opacity:1" /></g></g></svg>
